<?xml version="1.0" encoding="UTF-8" standalone="no"?>
<!-- Created with Inkscape (http://www.inkscape.org/) -->

<svg width="182.70514mm" height="71.441345mm" viewBox="0 0 182.70514 71.441345" version="1.1" id="svg5"
   inkscape:version="1.1.2 (b8e25be833, 2022-02-05)" sodipodi:docname="ListaXlogo2.svg"
   xmlns:inkscape="http://www.inkscape.org/namespaces/inkscape"
   xmlns:sodipodi="http://sodipodi.sourceforge.net/DTD/sodipodi-0.dtd" xmlns="http://www.w3.org/2000/svg"
   xmlns:svg="http://www.w3.org/2000/svg">
   <sodipodi:namedview id="namedview7" pagecolor="#ffffff" bordercolor="#666666" borderopacity="1.0"
      inkscape:pageshadow="2" inkscape:pageopacity="0.0" inkscape:pagecheckerboard="0" inkscape:document-units="mm"
      showgrid="false" inkscape:zoom="0.70710678" inkscape:cx="366.98842" inkscape:cy="106.06602"
      inkscape:window-width="1366" inkscape:window-height="745" inkscape:window-x="-8" inkscape:window-y="-8"
      inkscape:window-maximized="1" inkscape:current-layer="layer1" />
   <defs id="defs2">
      <rect x="139.15321" y="329.42392" width="563.71252" height="376.28165" id="rect18618" />
      <clipPath clipPathUnits="userSpaceOnUse" id="clipPath16410">
         <g inkscape:label="Clip" id="use16412">
            <rect
               style="fill:#6cc7d6;fill-opacity:1;stroke:none;stroke-width:0;stroke-linejoin:round;stroke-miterlimit:4;stroke-dasharray:none;stroke-opacity:1"
               id="rect16414" width="81.849342" height="16.453773" x="70.286079" y="172.06184" />
         </g>
      </clipPath>
      <rect x="139.15321" y="329.42392" width="563.71252" height="376.28165" id="rect18618-5" />
   </defs>
   <g inkscape:label="Camada 1" id="layer1" style="display:inline" transform="translate(-4.365286,-102.60511)">
      <path id="path15317"
         style="font-size:107.188px;line-height:1.25;display:inline;fill:#0b1816;fill-opacity:1;stroke:none;stroke-width:0;stroke-miterlimit:4;stroke-dasharray:none;stroke-opacity:1"
         transform="matrix(0.26458333,0,0,0.26458333,4.365286,102.60511)"
         d="m 265.49023,0 v 9.6933594 c 1.84625,0.3956396 3.56008,1.0534526 5.14258,1.9765626 1.5825,0.92314 3.42907,2.506177 5.53907,4.748047 2.10999,2.24189 4.68171,5.671499 7.71484,10.287109 3.03312,4.48375 6.39539,9.757999 10.08789,15.824219 l 58,97.103513 c 0.29782,-0.29418 0.60132,-0.58339 0.91406,-0.86328 1.31883,-0.84896 2.61195,-1.74014 3.95703,-2.54687 0.12303,-0.0737 0.28033,-0.0566 0.42188,-0.0801 0.5174,-0.0852 1.03479,-0.15494 1.55469,-0.16602 0.31193,-0.007 0.62503,0.008 0.93945,0.0527 0.78625,0.15478 1.28608,0.22304 1.79101,0.44726 4.67862,0.67722 6.05302,4.92904 3.13868,7.83008 0,0 0,0.002 0,0.002 -0.28279,1.02903 -0.76619,1.89721 -1.27149,2.97657 -0.64559,1.01105 -1.20722,2.08002 -1.93554,3.0332 -0.64262,0.84099 -1.4669,1.44108 -2.36133,1.94141 -0.0225,0.0739 -0.0415,0.14887 -0.0645,0.22265 -0.0701,0.22484 -0.15348,0.4446 -0.22851,0.66797 -0.0672,0.2002 -0.1317,0.40283 -0.19727,0.60352 -0.11297,0.36424 -0.12881,0.44396 -0.30664,0.84765 -0.0165,0.0374 -0.036,0.0729 -0.0547,0.10938 -0.0561,0.26349 -0.11039,0.52858 -0.17187,0.79101 -0.1001,0.42709 -0.27557,0.97392 -0.39844,1.36328 -0.0254,0.0804 -0.0497,0.16144 -0.0742,0.24219 -0.0253,0.0968 -0.0416,0.16109 -0.0723,0.28125 -0.098,0.39398 -0.19869,0.78725 -0.29492,1.18164 -0.19709,0.80769 -0.24127,1.16376 -0.59375,2.01563 -0.19525,0.47191 -0.39527,0.94888 -0.67383,1.37695 -1.29838,1.99514 -1.69899,2.19097 -3.39844,3.80664 -0.021,0.018 -0.0415,0.0366 -0.0625,0.0547 0.02,0.11793 0.0382,0.23649 0.0508,0.35547 0.0134,0.12737 -0.0372,0.25449 -0.0742,0.37695 -0.0256,0.0845 -0.0805,0.24247 -0.14258,0.41016 0.0199,0.15924 -0.0499,0.29156 -0.16406,0.4082 -0.029,0.0644 -0.0578,0.12507 -0.084,0.17188 -0.12412,0.22204 -0.26281,0.43464 -0.39453,0.65234 -0.43659,0.61621 -0.2304,0.34177 -0.94532,1.21094 -0.17349,0.21094 -0.33746,0.43274 -0.52734,0.6289 -0.28359,0.29318 -0.58165,0.57143 -0.89062,0.83789 -0.1948,0.16796 -0.3872,0.35177 -0.61915,0.46289 -0.49831,0.23872 -1.03483,0.38381 -1.55273,0.57618 -0.8483,0.0969 -0.81049,0.11704 -1.49414,0.125 -0.003,0.002 -0.007,0.004 -0.01,0.006 h -0.004 c -0.041,-0.004 -0.15972,0.005 -0.32227,-0.006 0.003,-0.002 0.005,-0.004 0.008,-0.006 -0.0165,-6.8e-4 -0.0257,-8.6e-4 -0.0391,-0.002 -0.006,0.001 -0.0117,0.003 -0.0176,0.004 0.0164,0.002 0.0314,0.003 0.0469,0.004 -0.0199,0.0148 -0.0471,0.017 -0.0684,0.0293 -0.18163,0.47402 -0.35816,0.95065 -0.50781,1.43555 -0.005,0.0177 -10e-4,0.0252 0.008,0.0254 -0.19406,0.14036 -0.39631,0.26986 -0.61914,0.36133 -0.077,0.0314 -0.15343,0.0624 -0.23047,0.0937 0.033,-0.0155 0.1263,-0.0679 0.0937,-0.0527 -0.0475,0.0242 -0.0933,0.0483 -0.14063,0.0723 -0.004,0.002 -0.008,0.004 -0.0117,0.006 -0.35861,0.18115 -0.71751,0.34531 -1.12891,0.39062 -0.19229,0.0155 -0.3835,0.0394 -0.57617,0.0508 -0.0926,0.005 -0.18651,-0.003 -0.2793,-0.004 -0.57143,-0.004 -1.14367,-0.003 -1.71484,0.0156 -0.33198,0.005 -0.67837,0.0132 -1.01172,-0.002 -0.23194,-0.0128 -0.46389,-0.028 -0.69531,-0.0469 -0.0532,-0.008 -0.20742,-0.008 -0.15821,-0.0274 1.98104,-0.82828 2.75935,-0.60385 -1.40429,-0.35742 -0.18437,-0.26578 -0.37472,-0.52766 -0.5625,-0.79102 -0.36235,-0.0434 -0.71151,-0.13233 -1.02149,-0.32812 l -29.48242,40.92187 c -12.26438,17.01188 -21.56063,28.61829 -27.89063,34.81641 -6.19811,6.06624 -12.13211,9.95555 -17.80273,11.66992 v 9.69336 h 81.89258 v -9.69336 c -12.26438,-1.18687 -18.39649,-6.39571 -18.39649,-15.62695 0,-8.04437 4.61641,-18.59477 13.84766,-31.65039 l 32.24414,-45.49609 26.50586,44.50781 c 9.09936,15.16563 13.64844,26.37579 13.64844,33.6289 10e-6,4.61564 -1.45032,8.10869 -4.35156,10.48243 -2.90124,2.24187 -7.25221,3.62679 -13.05469,4.15429 v 9.69336 h 134.9082 v -9.69336 c -2.63748,-0.5275 -5.07842,-1.64696 -7.32031,-3.36133 -2.11001,-1.71437 -4.549,-4.35342 -7.31836,-7.91406 -2.76939,-3.6925 -6.06625,-8.7032 -9.89063,-15.0332 l -71.6073,-118.88472 45.89258,-62.904294 c 11.60499,-15.95686 20.43959,-26.639985 26.50586,-32.046875 6.19812,-5.40687 12.26485,-8.834516 18.19922,-10.285156 V 0 H 440.1582 v 9.6933594 c 6.33,0.13188 11.01181,1.3186566 14.04492,3.5605466 3.03312,2.24187 4.55079,5.867657 4.55079,10.878906 0,4.48375 -1.38494,9.757979 -4.1543,15.824219 -2.63751,5.93439 -6.92305,13.12251 -12.85742,21.5625 L 418.40039,94.355469 400.00195,63.695312 C 388.92446,45.232803 383.38672,32.178037 383.38672,24.529297 c 0,-4.61561 1.31952,-8.04525 3.95703,-10.287109 2.63748,-2.37377 6.98843,-3.889459 13.05469,-4.5488286 V 0 Z m 79.875,172.03516 c 0.0925,0.004 0.22083,0.008 0.28516,0.006 0.0185,-1.9e-4 0.0254,2.1e-4 0.043,0 0.006,-0.004 0.0199,-0.0126 0.0234,-0.0156 0.058,-0.0492 0.0981,-0.0849 0.14648,-0.12695 -0.0773,0.0255 -0.15559,0.0508 -0.23242,0.0781 -0.0836,0.0138 -0.16665,0.0308 -0.25,0.0469 -0.005,0.004 -0.0105,0.008 -0.0156,0.0117 z m -39.125,-154.62891 h 38.77149 l 142.0293,235.19922 h -38.77149 z m 52.00782,137.34961 c -0.0407,0.0772 -0.0825,0.15535 -0.11914,0.23437 -0.0258,0.0556 0.0642,-0.10535 0.0918,-0.16015 0.006,-0.0116 0.0162,-0.044 0.0273,-0.0742 z m -7.30078,4.09375 c -0.0437,0.0246 -0.1654,0.11636 -0.17188,0.17773 0.0593,-0.0574 0.11791,-0.11498 0.17773,-0.17187 0.0157,-0.0149 0.0109,-0.0148 -0.006,-0.006 z m 1.48828,5.92969 c -0.0518,0.0595 -0.0236,0.0258 -0.0879,0.0996 0.0108,0.0602 0.0253,0.11966 0.0371,0.17968 0.0148,-0.0938 0.0302,-0.18803 0.0508,-0.27929 z m -0.16797,1.27343 c -0.0288,0.0252 -0.0571,0.051 -0.0859,0.0762 0.0184,0.0616 0.0363,0.12344 0.0527,0.18554 0.0133,-0.0863 0.0229,-0.17412 0.0332,-0.26172 z m -7.15625,7.23438 c 0.0264,-0.0189 -0.0485,0.0444 -0.0762,0.0625 -0.0662,0.0436 -0.20725,0.1786 -0.2461,0.18164 0.10943,-0.0792 0.21577,-0.16189 0.32227,-0.24414 z" />
      <g aria-label="Lista" transform="matrix(0.96669358,0,0,1.2691481,-127.57415,-301.98822)" id="text18616"
         style="font-size:40px;line-height:1.25;font-family:'Permanent Waves';-inkscape-font-specification:'Permanent Waves';white-space:pre;shape-inside:url(#rect18618-5);display:inline;fill:#6cc7d6"
         inkscape:label="Lista">
         <path
            d="m 177.23234,328.21718 q 0.08,1.08 -1.32,3.12 -4.32,5.68 -8.64,11.32 -7.48,9.8 -7.48,10.76 0,0.08 0.04,0.12 0.92,1.12 2.08,1.12 0.36,0 0.72,-0.12 h 16.52 q 1.36,0 2.32,0.68 0.96,0.64 1,1.4 0.08,1.4 -0.92,2.16 -0.96,0.72 -2.4,0.76 h -20.76 q -1.2,-0.52 -1.68,-0.8 -1.04,-0.6 -2.24,-1.56 -0.52,0.04 -3.48,1.2 -2.92,1.16 -4.6,1.16 h -7.24 q -2.28,0 -2.28,-2.36 0,-0.96 0.72,-1.76 0.72,-0.84 1.44,-0.88 5.52,-0.28 6.44,-0.4 1.52,-0.2 5,-1.08 3.68,-0.92 8.6,-7.24 3.36,-4.76 6.76,-9.52 0.4,-0.52 4.88,-6.76 0.76,-1.08 2.32,-3 0.32,-0.28 1.44,-0.36 1.04,-0.04 1.88,0.52 0.84,0.52 0.88,1.52 z"
            id="path17217" />
         <path
            d="m 209.59234,335.29718 q 0.08,1.16 -0.6,2.04 -0.64,0.88 -1.8,0.96 -2.36,0.16 -2.56,-2.32 -0.08,-1.24 0.36,-2.12 0.56,-1.08 1.72,-1.16 2.68,-0.2 2.88,2.6 z m 6.72,21.88 q 0,0.96 -0.84,1.68 -0.84,0.68 -1.8,0.68 h -12.68 q -1.48,0 -3.28,-1.4 -1.24,-1.04 -1.92,-2.04 -0.8,0.6 -1.56,1.16 -0.88,0.6 -1.84,0.92 -4.4,1.4 -5.72,1.4 l -7.52,-0.04 q -2.84,0 -2.84,-2.36 0,-1.04 0.84,-1.84 0.8,-0.8 2,-0.8 l 7.04,0.04 q 3.56,-0.28 6.08,-2.28 1.76,-1.4 3.88,-4.6 2.68,-4.12 3.72,-5.32 1.04,-1.2 1.88,-1.24 2.4,-0.16 2.6,2.72 0.08,1.2 -1.92,4 -2,2.8 -1.92,3.84 0.2,2.76 3.56,2.88 h 9.6 q 2.64,0.28 2.64,2.6 z"
            id="path17219" />
         <path
            d="m 253.55238,357.17718 q 0,0.96 -0.84,1.68 -0.84,0.68 -1.88,0.68 h -10.28 q -0.8,0.04 -3.2,-0.68 -2.4,-0.76 -2.68,-0.72 -0.68,0.04 -2,0.52 -1.28,0.48 -1.92,0.56 -2.28,0.12 -6.36,-2.16 -0.36,0.04 -2.08,1.2 -1.68,1.16 -3.64,1.32 l -5.28,-0.04 q -2.4,-0.32 -2.4,-2.36 0,-1.04 0.68,-1.84 0.64,-0.8 1.72,-0.8 h 5.28 q 3.28,0 16.12,-15.12 1.16,-1.52 2.92,-3.56 0.4,-0.32 1.36,-0.4 2.56,-0.16 2.76,2.6 0,0.16 -0.8,1.72 -0.8,1.56 -0.88,2.12 -0.16,1 -0.2,3.84 0,3.04 -0.2,4.44 -0.32,2.36 -1.24,3.44 l 2.76,0.92 h 9.56 q 1.16,0 1.92,0.8 0.8,0.8 0.8,1.84 z m -18.76,-8.44 q -0.04,-0.56 -0.32,-0.76 -2.4,2.24 -2.92,2.76 -1.64,1.64 -2.56,3.08 l 0.48,0.48 1,-0.08 q 1.4,-0.08 2.92,-2.08 1.52,-2 1.4,-3.4 z"
            id="path17221" />
         <path
            d="m 292.63241,334.57718 q -0.04,1.44 -2.32,1.8 -0.84,0.12 -3.4,0.08 -1,0 -3,-0.16 -1.96,-0.16 -2.92,-0.16 -1.56,-0.04 -2.56,0.84 -0.56,0.48 -1.76,2.2 -1.36,1.8 -4,5.48 -1.68,2.24 -3.32,4.48 -1.84,2.56 -1.84,3.72 0,1.68 3.28,1.68 h 14.88 q 1.12,0 1.88,0.8 0.76,0.8 0.8,1.84 0.04,0.96 -0.76,1.68 -0.76,0.68 -1.68,0.68 h -16.68 q -2.72,0 -4,-0.52 -1.68,-0.72 -2.64,-2.84 0,-0.04 -2.24,1.4 -2.68,1.72 -4.8,1.96 h -4.72 q -2.64,-0.04 -2.6,-2.36 0,-1.12 0.72,-1.88 0.72,-0.76 1.96,-0.76 h 2.64 q 5.32,0 10.2,-6.24 1.16,-1.52 8.2,-11.16 -0.24,-0.52 -1.2,-0.56 -1.08,0 -3.2,0.08 -2.12,0.08 -3.2,0.08 -3.2,-0.08 -3.16,-2.16 0,-1.6 2,-2 0.8,-0.2 3.24,-0.16 0.68,-0.08 2.08,-0.2 l 6.28,0.12 q 1.88,0.04 4.4,-2.36 2.56,-2.44 3.72,-2.4 0.6,0 1.48,0.8 0.04,0.6 -0.48,1.72 -0.48,1.12 -0.48,1.28 -0.04,0.92 2.36,1.08 2.24,0.12 4.48,0.28 2.4,0.36 2.36,1.84 z"
            id="path17223" />
         <path
            d="m 325.8724,357.05718 q 0,2.48 -3.64,2.48 -11.64,0 -13.24,-0.36 -0.28,-0.08 -1.04,-0.48 -0.72,-0.44 -1.08,-0.44 0.08,0 -1.24,0.28 -2.48,0.48 -3.56,0.48 -3.2,0 -4.64,-0.64 -0.8,-0.36 -1.88,-1.28 -0.8,-0.68 -0.88,-0.52 -1.2,1.36 -4.92,2.24 -3.16,0.72 -5.84,0.72 -3.72,0 -3.72,-2.28 -0.04,-2.72 3.72,-2.72 1.68,0 4.48,-0.68 3.92,-0.92 6.08,-2.48 0.56,-0.4 2,-2.4 1.6,-2.24 2.12,-2.76 1.68,-1.72 4.32,-3 2.8,-1.36 5.04,-1.36 0.64,0 2.4,0.48 1.8,0.48 2.48,0.48 0.24,0 0.76,-0.08 0.52,-0.12 0.8,-0.12 0.96,0 1.92,0.76 1,0.72 1,1.68 0,1 -3.52,6.88 -0.44,0.68 -0.96,1.72 1.6,1.16 9.44,0.88 1.2,0 2.32,0.64 1.28,0.72 1.28,1.88 z m -16,-10.32 q -1.16,-0.2 -0.96,-0.2 -2.24,0 -2.44,0.08 -1.24,0.52 -3.76,2.72 -2.76,2.44 -2.76,3.36 v 0.64 q 1.52,0.4 2.32,0.4 1.32,0 2.6,-0.84 1.12,-0.88 2.24,-1.76 0.56,-0.44 1.6,-1.76 1.16,-1.48 1.16,-1.96 z"
            id="path17225" />
      </g>
      <path id="path15317-0"
         style="font-size:107.188px;line-height:1.25;display:inline;fill:#0b1816;fill-opacity:1;stroke:none;stroke-width:0;stroke-miterlimit:4;stroke-dasharray:none;stroke-opacity:1"
         transform="matrix(0.26458333,0,0,0.26458333,4.365286,102.60511)"
         d="m 265.48828,0 v 9.6933594 c 1.84625,0.3956406 3.56008,1.0534506 5.14258,1.9765626 1.5825,0.923149 3.42906,2.506182 5.53906,4.748047 2.11,2.241864 4.68171,5.671474 7.71485,10.287109 3.03313,4.483729 6.39539,9.757964 10.08789,15.824219 l 11.76562,19.697265 c 3.93031,-9.446437 9.8478,-15.631245 16.33008,-18.605468 L 306.23828,17.40625 h 38.77149 l 142.02929,235.19922 h -38.77148 l -2.24024,-3.70899 c 0.0431,2.48251 0.0521,4.96539 0.10352,7.44922 0.0643,3.08833 0.40752,8.87111 -0.18359,13.66797 h 81.44531 v -9.69336 c -2.63751,-0.52751 -5.07845,-1.64697 -7.32031,-3.36133 -2.11004,-1.71435 -4.54899,-4.3534 -7.31836,-7.91406 -2.76941,-3.69248 -6.06624,-8.70321 -9.89063,-15.0332 L 431.25586,115.12695 477.14844,52.222656 C 488.7534,36.265793 497.58804,25.58266 503.6543,20.175781 509.85242,14.768903 515.91917,11.341245 521.85352,9.890625 V 0 h -81.69727 v 9.6933594 c 6.32999,0.1319055 11.01181,1.3186446 14.04492,3.5605466 3.03311,2.241865 4.55078,5.867631 4.55078,10.878906 0,4.48373 -1.38492,9.757964 -4.15429,15.824219 -2.63751,5.934388 -6.92304,13.122513 -12.85743,21.5625 L 418.39844,94.355469 400,63.695312 c -11.07749,-18.4625 -16.61523,-31.517272 -16.61523,-39.166015 0,-4.615635 1.31948,-8.045245 3.95703,-10.287109 2.63746,-2.373771 6.98839,-3.889452 13.05468,-4.5488286 V 0 Z m 19.88281,267.7793 c -0.46382,0.0737 -0.91896,0.18009 -1.36132,0.33203 0.33513,0.0933 0.68579,0.17863 1.05664,0.25195 0.0952,-0.192 0.20052,-0.38858 0.30468,-0.58398 z" />
   </g>
</svg>